<svg xmlns="http://www.w3.org/2000/svg" width="200" height="145" fill="none" style=""><rect id="backgroundrect" width="100%" height="100%" x="0" y="0" fill="none" stroke="none" class="" style=""/>
<g class="currentLayer" style=""><title>Layer 1</title><path d="M20.962710135099982,65.59362062013133 L28.267586060346545,61.99123566063193 L39.814044575857054,44.70072368242322 L43.34871967135615,43.26009999064297 L47.11900307410849,60.79062416969853 L42.17040289173997,61.51093601558864 L38.400119488987485,54.30671658328893 L35.572544558598025,65.59362062013133 H48.06143630312181 L61.02181990550187,68.95544289208476 L66.20602839512387,65.59362062013133 L74.92491198024484,74.71903863260417 L78.69519538299718,57.90882629943877 L84.82183710163244,64.1527216850015 L88.5921205043849,58.86942558952535 L94.7187622230201,57.18851445354866 L103.67325411539446,48.78340828696591 L105.08690395891438,44.70072368242322 L112.39186245716584,45.90161041670629 L115.45532093815828,49.98401977789936 L110.03550414128296,61.51093601558864 L123.46710435816973,54.54672878413581 V51.18463126883279 L128.6513128477917,49.98401977789936 L134.30673795192027,55.747615518418826 L139.96216305604887,48.78340828696591 V43.98041183653311 L149.15226325567644,37.496504250123536 L152.92254665842893,31.973195953800513 H158.81358006981083 L169.1817218057052,10.600219565728793 L178.13621369807936,1.2345691577294247 L181.4350052429756,6.5177551558657285 L176.25107199670327,13.241840089131927 L178.13621369807936,17.56445432151662 L183.0845386370985,18.525026087268202 L187.09043034710425,36.29589275919014 V51.18463126883279 L194.15978053810244,61.030636370545324 L197.6944556336013,74.71903863260417 L185.4411721963309,66.79423211106476 L180.02135539945556,43.98041183653311 L176.72228861120993,44.70072368242322 L176.25107199670327,60.07003708045883 L167.29658010432888,74.71903863260417 L164.70461348119267,97.05255926209261 L170.83125519982798,98.49345819722245 L173.42322182296408,95.37137288276637 L179.31425523434615,102.09556791337232 L183.79163880220807,122.26787776184068 L183.3201469443518,135.23569293465988 H177.66499708357287 L175.54397183159375,116.98458166636459 L171.53808012158783,122.50788996268756 L162.81947177981652,120.5866913825144 L155.7501215888184,114.58308344114812 L147.73833816880696,117.46488131140791 L148.2095547833136,130.43269648422694 L141.84730475742506,132.1136076202037 L132.4215962505441,139.318102295853 L121.11074604228693,137.87720336072306 L116.63363771777452,135.23569293465988 L109.56428752677635,136.43630442559328 L111.92064584265918,139.318102295853 L106.26522073853062,142.680199811156 L101.78811241401823,140.51871378678635 L93.30483713615055,144.36111094713266 L80.34445353377046,137.87720336072306 L75.39612859475147,126.35028712303387 L71.15462857749247,126.83058676807713 L66.20602839512387,122.748177406884 L65.97042008787048,119.62609209242788 L50.18246155510096,117.94518095645117 L47.59021968861521,126.59029932388069 L37.6932945672275,122.02759031764424 L32.74469438485892,113.62248415106154 H22.14091681737628 L20.962710135099982,127.07059896892395 L14.835985843459795,128.99179754909716 L11.7726374598073,141.2393008760261 L9.416224095254478,139.0778148516565 L-0.48075607480306815,113.38247195021472 L11.301365796630705,107.61887620969529 L9.416224095254478,96.33197217285294 L7.5310823938782505,84.80505593516361 L12.715208310495328,77.36054905866746 L11.065729965042436,72.79784005243104 L18.134997583035712,65.1133209750881 L20.962710135099982,65.59362062013133 zM177.66499708357287,93.93074919098606 L188.50435543397367,110.2603866357586 L192.03903052947277,108.81948770062871 L187.5619222049604,102.09556791337232 L177.66499708357287,91.52925096576959 V93.93074919098606 zM66.9128533168838,60.79062416969853 V55.987627719265646 L75.16052028749817,49.98401977789936 L82.22959523514675,46.38191006174952 H73.9822035078819 L66.67724500963047,50.70460686713909 L62.20013668511805,54.78701622833228 V60.79062416969853 H66.9128533168838 z" fill="black" id="svg_1" class="" opacity="1"/></g></svg>